<?xml version="1.0"?>
<svg xmlns="http://www.w3.org/2000/svg" width="8" height="8" aria-hidden="true" viewBox="0 0 8 8" fill="#09CC50">
    <rect x="1" y="0" width="0.9" height="0.9"/>
    <rect x="2" y="0" width="0.9" height="0.9"/>
    <rect x="5" y="0" width="0.9" height="0.9"/>
    <rect x="6" y="0" width="0.9" height="0.9"/>
    <rect x="1" y="1" width="0.9" height="0.9"/>
    <rect x="2" y="1" width="0.9" height="0.9"/>
    <rect x="5" y="1" width="0.9" height="0.9"/>
    <rect x="6" y="1" width="0.9" height="0.9"/>
    <rect x="1" y="2" width="0.9" height="0.9"/>
    <rect x="2" y="2" width="0.9" height="0.9"/>
    <rect x="5" y="2" width="0.9" height="0.9"/>
    <rect x="6" y="2" width="0.9" height="0.9"/>
    <rect x="1" y="3" width="0.9" height="0.9"/>
    <rect x="2" y="3" width="0.9" height="0.9"/>
    <rect x="5" y="3" width="0.9" height="0.9"/>
    <rect x="6" y="3" width="0.9" height="0.9"/>
    <rect x="1" y="4" width="0.9" height="0.9"/>
    <rect x="2" y="4" width="0.9" height="0.9"/>
    <rect x="5" y="4" width="0.9" height="0.9"/>
    <rect x="6" y="4" width="0.9" height="0.9"/>
    <rect x="2" y="5" width="0.9" height="0.9"/>
    <rect x="3" y="5" width="0.9" height="0.9"/>
    <rect x="4" y="5" width="0.9" height="0.9"/>
    <rect x="5" y="5" width="0.9" height="0.9"/>
    <rect x="3" y="6" width="0.9" height="0.9"/>
    <rect x="4" y="6" width="0.9" height="0.9"/>
</svg>